<svg xmlns="http://www.w3.org/2000/svg" viewBox="0 0 2.88 2.89"><defs><style>.cls-1{fill:#fff;fill-rule:evenodd;}</style></defs><g id="Layer_2" data-name="Layer 2"><g id="Layer_1-2" data-name="Layer 1"><path class="cls-1" d="M.72.82A.58.58,0,0,0,.78,1l.57,1.42a1.7,1.7,0,0,0,.12.3.11.11,0,0,0,.14,0l.09-.15.08-.14.08-.14s.47.46.54.53.06.06.11.06.09-.05.11-.08l.18-.18c.05,0,.08-.06.08-.13s0-.07-.06-.09l-.54-.54.07,0,.21-.12c.09-.05.16-.08.17-.16s-.09-.1-.18-.14L1.45,1,1.14.85,1,.79A.58.58,0,0,0,.81.73.09.09,0,0,0,.72.82Zm.5-.29a.11.11,0,0,0,0,.07.08.08,0,0,0,.08,0c.06,0,.17-.14.22-.18s.08-.08.08-.12-.08-.17-.2,0a1.75,1.75,0,0,0-.19.2.06.06,0,0,0,0,.05Zm-1,1a.11.11,0,0,0,.1.1s.09-.06.12-.09.18-.16.19-.21S.55,1.15.43,1.28l-.08.08-.08.08A.12.12,0,0,0,.21,1.54ZM.86.1V.4c0,.13.19.14.19,0V.11C1.05,0,1,0,1,0h0A.08.08,0,0,0,.86.09ZM0,1a.1.1,0,0,0,.11.11H.38C.54,1.06.53.87.4.87H.1A.1.1,0,0,0,0,1ZM.26.36c0,.07.06.11.13.18L.47.61C.52.67.51.67.59.67a.11.11,0,0,0,.06,0C.72.56.61.48.58.45L.48.35S.42.27.35.27A.09.09,0,0,0,.26.36ZM1,1l.35.14.36.14.53.22a.75.75,0,0,1,.18.07l-.08.05-.07,0s-.2.1-.22.15a.09.09,0,0,0,0,.1l.61.61-.14.14s-.58-.59-.61-.61a.12.12,0,0,0-.1,0s-.11.17-.15.22a.43.43,0,0,1,0,.07l-.05.08s-.06-.15-.07-.17a1.22,1.22,0,0,1-.07-.17C1.39,2,1,1.05,1,1Z"/></g></g></svg>