<svg xmlns="http://www.w3.org/2000/svg" viewBox="0 0 2.03 2.34"><defs><style>.cls-1{fill:#fff;fill-rule:evenodd;}</style></defs><g id="Layer_2" data-name="Layer 2"><g id="Layer_1-2" data-name="Layer 1"><path class="cls-1" d="M.49.91C.47.82.43.71.4.61A2.88,2.88,0,0,0,.35.28H.14A.76.76,0,0,0,.49.91m1.05,0A.79.79,0,0,0,1.89.27H1.67A2.6,2.6,0,0,1,1.54.91ZM.34.13H0A1,1,0,0,0,.1.68a.71.71,0,0,0,.41.39c.14,0,0,.06.25.25s.13.05.13.18a.64.64,0,0,1-.06.28c-.39,0-.31-.22-.32.27a.78.78,0,0,0-.16,0,.81.81,0,0,0,0,.16c0,.09,0,.11.08.11H1.61c.07,0,.07,0,.07-.09s0-.19-.07-.19a.27.27,0,0,0-.09,0c0-.47.08-.28-.32-.28a.58.58,0,0,1-.06-.26c0-.2.12-.11.27-.36s.07,0,.21-.13a.67.67,0,0,0,.3-.34C2,.59,2.08.26,2,.15s-.23,0-.32,0S1.71,0,1.61,0H.42C.33,0,.35.05.34.13Z"/></g></g></svg>